<?xml version="1.0" encoding="iso-8859-1"?>
<!-- Generator: Adobe Illustrator 19.0.0, SVG Export Plug-In . SVG Version: 6.00 Build 0)  -->
<svg version="1.1" id="Capa_1" xmlns="http://www.w3.org/2000/svg" xmlns:xlink="http://www.w3.org/1999/xlink" x="0px" y="0px"
	 viewBox="0 0 384 384" style="enable-background:new 0 0 384 384;" xml:space="preserve">
<g>
	<g>
		<path d="M280,232c-8.832,0-16,7.168-16,16v16H120V120h16c8.832,0,16-7.168,16-16c0-8.832-7.168-16-16-16h-32
			c-8.832,0-16,7.168-16,16v72H16c-8.832,0-16,7.168-16,16v176c0,8.832,7.168,16,16,16h176c8.832,0,16-7.168,16-16v-72h72
			c8.832,0,16-7.168,16-16v-32C296,239.168,288.832,232,280,232z M176,352H32V208h56v72c0,8.832,7.168,16,16,16h72V352z"/>
	</g>
</g>
<g>
	<g>
		<path d="M368,0H192c-8.832,0-16,7.168-16,16v88c0,8.832,7.168,16,16,16c8.832,0,16-7.168,16-16V32h144v144h-72
			c-8.832,0-16,7.168-16,16c0,8.832,7.168,16,16,16h88c8.832,0,16-7.168,16-16V16C384,7.168,376.832,0,368,0z"/>
	</g>
</g>
<g>
	<g>
		<path d="M224,176h-16v-16c0-8.832-7.168-16-16-16c-8.832,0-16,7.168-16,16v16h-16c-8.832,0-16,7.168-16,16c0,8.832,7.168,16,16,16
			h16v16c0,8.832,7.168,16,16,16c8.832,0,16-7.168,16-16v-16h16c8.832,0,16-7.168,16-16C240,183.168,232.832,176,224,176z"/>
	</g>
</g>
<g>
</g>
<g>
</g>
<g>
</g>
<g>
</g>
<g>
</g>
<g>
</g>
<g>
</g>
<g>
</g>
<g>
</g>
<g>
</g>
<g>
</g>
<g>
</g>
<g>
</g>
<g>
</g>
<g>
</g>
</svg>
