<svg height="512pt" viewBox="0 0 512 512" width="512pt" xmlns="http://www.w3.org/2000/svg"><path d="m512 195.75c0-107.9375-87.8125-195.75-195.75-195.75-85.355469 0-158.117188 54.921875-184.828125 131.277344-27.570313 9.566406-52.84375 25.3125-74.085937 46.554687-36.972657 36.972657-57.335938 86.128907-57.335938 138.417969 0 52.285156 20.363281 101.445312 57.335938 138.414062 36.972656 36.972657 86.128906 57.332032 138.414062 57.332032s101.441406-20.359375 138.414062-57.332032c21.574219-21.574218 37.046876-46.976562 46.425782-74.039062 76.425781-26.675781 131.410156-99.46875 131.410156-184.875zm-433.453125 3.296875c13.058594-13.058594 27.914063-23.660156 44.007813-31.59375-1.34375 9.242187-2.054688 18.6875-2.054688 28.296875 0 1.363281.023438 2.71875.050781 4.074219l-88.160156 88.164062c5.722656-33.523437 21.617187-64.402343 46.15625-88.941406zm277.929687 157.507813c-3.921874.980468-7.898437 1.824218-11.925781 2.519531l14.4375-14.433594c-.691406 3.992187-1.527343 7.96875-2.511719 11.914063zm-56.023437 4.1875c-19.777344-1.878907-38.558594-7.238282-55.707031-15.476563l100.53125-100.527344c8.449218 17.710938 13.589844 36.617188 15.398437 55.78125zm-120.507813 120.511718c-19.542968-1.839844-38.363281-7.074218-55.773437-15.421875l98.304687-98.296875c16.035157 8.785156 33.425782 15.386719 51.769532 19.414063zm38.304688-151.917968c-13.585938-9.992188-25.597656-22.003907-35.589844-35.589844l111.15625-111.15625c6.722656 4.953125 13.121094 10.441406 19.136719 16.457031 6.046875 6.050781 11.527344 12.453125 16.445313 19.144531zm-51.519531-62.085938c-8.234375-17.148438-13.59375-35.929688-15.472657-55.703125l60.296876-60.300781c19.539062 1.835937 38.355468 7.070312 55.765624 15.414062zm-135.984375 64.804688 94.304687-94.304688c4.027344 18.34375 10.625 35.734375 19.410157 51.769531l-98.300782 98.300781c-8.34375-17.40625-13.578125-36.226562-15.414062-55.765624zm122.179687-164.605469c.703125-4.070313 1.554688-8.085938 2.550781-12.046875 3.960938-.984375 7.964844-1.824219 12.011719-2.515625zm-90.835937 246.867187 99.160156-99.160156c10.292969 13.328125 22.261719 25.296875 35.589844 35.589844l-99.164063 99.160156c-6.71875-4.953125-13.117187-10.441406-19.128906-16.453125-6.015625-6.015625-11.503906-12.414063-16.457031-19.136719zm250.863281 19.136719c-24.539063 24.535156-55.417969 40.429687-88.941406 46.15625l88.164062-88.160156c1.355469.027343 2.710938.050781 4.074219.050781 9.582031 0 19-.703125 28.214844-2.039062-7.808594 15.894531-18.308594 30.789062-31.511719 43.992187zm76.425781-88.984375c1.800782-12.453125 2.402344-25.046875 1.804688-37.59375.046875-1.0625-.011719-2.125-.1875-3.175781-2.03125-31.871094-11.792969-63.339844-29.300782-91.308594-.195312-.332031-.402343-.660156-.625-.980469-7.558593-11.914062-16.519531-23.191406-26.90625-33.574218-36.972656-36.972657-86.128906-57.335938-138.417968-57.335938-9.507813 0-18.910156.683594-28.15625 2.007812 27.089844-54.757812 83.546875-92.507812 148.660156-92.507812 91.394531 0 165.75 74.355469 165.75 165.75 0 65.160156-37.800781 121.648438-92.621094 148.71875zm0 0"/></svg>