<?xml version="1.0" encoding="iso-8859-1"?>
<!-- Generator: Adobe Illustrator 19.0.0, SVG Export Plug-In . SVG Version: 6.00 Build 0)  -->
<svg version="1.1" id="Layer_1" xmlns="http://www.w3.org/2000/svg" xmlns:xlink="http://www.w3.org/1999/xlink" x="0px" y="0px"
	 viewBox="0 0 512 512" style="enable-background:new 0 0 512 512;" xml:space="preserve">
<g>
	<g>
		<path d="M237.982,241.126L126.52,40.516c-1.186-2.15-3.977-2.893-6.059-1.587C51.64,82.057,4.741,156.979,0.406,242.953
			c-0.128,2.44,1.869,4.514,4.318,4.514h229.53C237.504,247.467,239.561,243.968,237.982,241.126z"/>
	</g>
</g>
<g>
	<g>
		<path d="M391.531,38.929c-2.082-1.306-4.864-0.563-6.059,1.587l-111.454,200.61c-1.579,2.842,0.478,6.34,3.729,6.34h229.53
			c2.449,0,4.437-2.074,4.318-4.514C507.252,156.979,460.352,82.057,391.531,38.929z"/>
	</g>
</g>
<g>
	<g>
		<path d="M368.721,26.266C334.69,9.489,296.436,0,255.996,0S177.31,9.489,143.271,26.266c-2.193,1.084-3.021,3.823-1.835,5.965
			l110.831,199.492c1.63,2.927,5.837,2.927,7.458,0L370.556,32.23C371.742,30.089,370.923,27.349,368.721,26.266z"/>
	</g>
</g>
<g>
	<g>
		<path d="M234.245,264.533H4.724c-2.449,0-4.446,2.074-4.318,4.514c4.343,85.973,51.243,160.896,120.064,204.023
			c2.082,1.306,4.864,0.563,6.059-1.587l111.454-200.61C239.552,268.032,237.496,264.533,234.245,264.533z"/>
	</g>
</g>
<g>
	<g>
		<path d="M507.277,264.533h-229.53c-3.251,0-5.308,3.499-3.729,6.34l111.454,200.61c1.195,2.15,3.977,2.893,6.059,1.587
			c68.821-43.128,115.721-118.05,120.064-204.023C511.714,266.607,509.726,264.533,507.277,264.533z"/>
	</g>
</g>
<g>
	<g>
		<path d="M370.556,479.77L259.725,280.277c-1.63-2.927-5.837-2.927-7.458,0L141.436,479.77c-1.186,2.142-0.367,4.881,1.835,5.965
			C177.31,502.511,215.557,512,255.996,512s78.686-9.489,112.725-26.266C370.914,484.651,371.742,481.911,370.556,479.77z"/>
	</g>
</g>
<g>
</g>
<g>
</g>
<g>
</g>
<g>
</g>
<g>
</g>
<g>
</g>
<g>
</g>
<g>
</g>
<g>
</g>
<g>
</g>
<g>
</g>
<g>
</g>
<g>
</g>
<g>
</g>
<g>
</g>
</svg>
