<?xml version="1.0" encoding="iso-8859-1"?>
<!-- Generator: Adobe Illustrator 16.0.0, SVG Export Plug-In . SVG Version: 6.00 Build 0)  -->
<!DOCTYPE svg PUBLIC "-//W3C//DTD SVG 1.1//EN" "http://www.w3.org/Graphics/SVG/1.1/DTD/svg11.dtd">
<svg version="1.1" id="Capa_1" xmlns="http://www.w3.org/2000/svg" xmlns:xlink="http://www.w3.org/1999/xlink" x="0px" y="0px"
	 width="326.637px" height="326.637px" viewBox="0 0 326.637 326.637" style="enable-background:new 0 0 326.637 326.637;"
	 xml:space="preserve">
<g>
	<g>
		<path d="M177.136,13.799C177.136,6.188,170.962,0,163.343,0c-7.626,0-13.799,6.188-13.799,13.799v64.452h27.592V13.799z"/>
		<path d="M260.704,78.251h-0.763h-48.146h-34.659v106.276l9.163-10.917c4.888-5.837,13.595-6.594,19.432-1.705
			c5.843,4.899,6.604,13.606,1.711,19.438l-33.53,39.949c-0.114,0.133-0.253,0.229-0.379,0.36c-0.396,0.444-0.841,0.853-1.309,1.243
			c-0.265,0.234-0.528,0.463-0.816,0.667c-0.505,0.372-1.051,0.685-1.615,0.984c-0.271,0.15-0.541,0.324-0.829,0.456
			c-0.643,0.289-1.33,0.493-2.012,0.679c-0.24,0.066-0.469,0.162-0.708,0.216c-0.94,0.199-1.919,0.325-2.913,0.325
			c-0.997,0-1.97-0.126-2.915-0.325c-0.24-0.054-0.468-0.149-0.708-0.216c-0.682-0.186-1.363-0.39-2.009-0.679
			c-0.291-0.132-0.562-0.306-0.832-0.456c-0.564-0.3-1.114-0.618-1.615-0.984c-0.292-0.204-0.55-0.433-0.82-0.667
			c-0.453-0.391-0.904-0.799-1.303-1.243c-0.129-0.132-0.258-0.216-0.381-0.36l-33.525-39.949c-4.9-5.831-4.137-14.538,1.706-19.438
			c5.845-4.9,14.54-4.125,19.434,1.705l9.158,10.917V78.251h-33.537h-50.02c-14.802,0-26.841,12.034-26.841,26.836v194.721
			c0,14.789,12.04,26.829,26.841,26.829H260.68c14.79,0,26.836-12.04,26.836-26.829V105.087
			C287.54,90.285,275.494,78.251,260.704,78.251z"/>
	</g>
</g>
<g>
</g>
<g>
</g>
<g>
</g>
<g>
</g>
<g>
</g>
<g>
</g>
<g>
</g>
<g>
</g>
<g>
</g>
<g>
</g>
<g>
</g>
<g>
</g>
<g>
</g>
<g>
</g>
<g>
</g>
</svg>
